<?xml version="1.0" encoding="iso-8859-1"?>
<!-- Generator: Adobe Illustrator 19.0.0, SVG Export Plug-In . SVG Version: 6.00 Build 0)  -->
<svg version="1.1" id="Layer_1" xmlns="http://www.w3.org/2000/svg" xmlns:xlink="http://www.w3.org/1999/xlink" x="0px" y="0px"
	 viewBox="0 0 512 512" style="enable-background:new 0 0 512 512;" xml:space="preserve">
<g>
	<g>
		<path d="M501.55,446.146v-23.014c0-5.77-4.679-10.449-10.449-10.449h-11.494v-25.077c0-5.77-4.679-10.449-10.449-10.449h-2.09
			V271.675h2.09c5.77,0,10.449-4.679,10.449-10.449v-25.077h10.449c5.77,0,10.449-4.679,10.449-10.449v-23.014h1.045
			c4.569,0,8.608-2.969,9.972-7.33c1.365-4.36-0.263-9.102-4.018-11.705L261.955,13.357c-3.582-2.484-8.329-2.484-11.91,0
			L4.495,183.651c-3.754,2.603-5.382,7.345-4.018,11.705c1.365,4.361,5.403,7.33,9.972,7.33h1.045V225.7
			c0,5.77,4.679,10.449,10.449,10.449h10.449v25.077c0,5.77,4.679,10.449,10.449,10.449h2.09v105.481h-2.09
			c-5.77,0-10.449,4.679-10.449,10.449v25.077H20.899c-5.77,0-10.449,4.679-10.449,10.449v23.014
			c-5.771,0-10.449,4.679-10.449,10.449v33.463c0,5.77,4.678,10.449,10.449,10.449h491.1c5.77,0,10.449-4.679,10.449-10.449v-33.463
			C511.999,450.824,507.32,446.146,501.55,446.146z M256,34.659l212.148,147.129H43.852L256,34.659z M42.842,215.251H32.393v-12.565
			h447.214v12.565h-10.449H42.842z M456.62,398.055h2.09v14.629h-43.885v-14.629h2.09H456.62z M427.363,377.157V271.675h18.808
			v105.482H427.363z M414.824,250.777v-14.628h43.885v14.628H414.824z M320.086,254.954H191.913c-5.77,0-10.449,4.679-10.449,10.449
			v147.28h-63.391v-25.077c0-5.77-4.679-10.449-10.449-10.449h-2.09V271.675h2.09c5.77,0,10.449-4.679,10.449-10.449v-25.077
			h275.852v25.077c0,5.77,4.679,10.449,10.449,10.449h2.09v105.481h-2.09c-5.77,0-10.449,4.679-10.449,10.449v25.077h-63.391
			v-147.28C330.535,259.633,325.856,254.954,320.086,254.954z M256,328.098c-5.77,0-10.449,4.679-10.449,10.449v74.136h-43.189
			V275.852h107.275v136.831h-43.189v-74.136C266.449,332.777,261.77,328.098,256,328.098z M95.086,398.055h2.09v14.629H53.291
			v-14.629h2.09H95.086z M65.829,377.156V271.675h18.808v105.481H65.829z M53.291,250.777v-14.628h43.885v14.628H53.291z
			 M480.652,433.582v12.565H31.348c0,0,0-12.565,0-12.565H480.652z M491.101,479.609H20.899v-12.565h470.202V479.609z"/>
	</g>
</g>
<g>
	<g>
		<path d="M255.999,294.156c-5.77,0-10.449,4.679-10.449,10.449v0.138c0,5.77,4.679,10.449,10.449,10.449
			s10.449-4.679,10.449-10.449v-0.138C266.448,298.834,261.769,294.156,255.999,294.156z"/>
	</g>
</g>
<g>
	<g>
		<path d="M266.449,99.936V76.93c2.76,2.284,4.477,5.46,4.477,8.968c0,5.77,4.679,10.449,10.449,10.449s10.449-4.679,10.449-10.449
			c0-15.064-10.703-27.833-25.375-32.022v-0.587c0-5.77-4.679-10.449-10.449-10.449s-10.449,4.679-10.449,10.449v0.587
			c-14.672,4.189-25.375,16.958-25.375,32.022s10.703,27.833,25.375,32.022v23.005c-2.76-2.284-4.477-5.46-4.477-8.968
			c0-5.77-4.679-10.449-10.449-10.449s-10.449,4.679-10.449,10.449c0,15.064,10.703,27.833,25.375,32.022v1.469
			c0,5.77,4.679,10.449,10.449,10.449s10.449-4.679,10.449-10.449v-1.469c14.672-4.189,25.375-16.958,25.375-32.022
			C291.824,116.893,281.121,104.126,266.449,99.936z M245.551,94.868c-2.76-2.284-4.477-5.46-4.477-8.969
			c0-3.51,1.718-6.684,4.477-8.968V94.868z M266.449,140.927v-17.938c2.76,2.284,4.477,5.46,4.477,8.968
			C270.926,135.467,269.208,138.643,266.449,140.927z"/>
	</g>
</g>
<g>
</g>
<g>
</g>
<g>
</g>
<g>
</g>
<g>
</g>
<g>
</g>
<g>
</g>
<g>
</g>
<g>
</g>
<g>
</g>
<g>
</g>
<g>
</g>
<g>
</g>
<g>
</g>
<g>
</g>
</svg>
